<svg xmlns="http://www.w3.org/2000/svg" fill="none" viewBox="-0.5 -0.5 24 24" id="C-Plusplus--Streamline-Svg-Logos.svg" height="24" width="24"><desc>C Plusplus Streamline Icon: https://streamlinehq.com</desc><path fill="#649AD2" d="M21.5179375 6.860708333333333c-0.00014375 -0.37866145833333337 -0.08112291666666667 -0.7132875 -0.24490208333333335 -1.0004760416666667 -0.16088020833333333 -0.28239687500000005 -0.40180520833333333 -0.5190812499999999 -0.7249791666666666 -0.7062197916666667 -2.6675927083333333 -1.5381489583333334 -5.337772916666666 -3.071590104166667 -8.004479166666666 -4.611301145833334C11.824635416666666 0.12765646875000003 11.127567708333334 0.14278783333333334 10.41396875 0.5637994791666667 9.352183333333334 1.1899864583333333 4.0362125 4.235617708333333 2.4521354166666667 5.15315c-0.652380625 0.3776552083333334 -0.96982375 0.9556260416666668 -0.969981875 1.7068635416666667 -0.0010182291666666668 3.0933083333333333 0 6.186520833333334 -0.0010182291666666668 9.279901041666667 0 0.370371875 0.07769447916666668 0.69848125 0.23426218750000002 0.9813572916666666 0.160956875 0.29092604166666663 0.4052528125 0.5341270833333334 0.7358754166666668 0.72550625 1.5841489583333335 0.9175322916666667 6.900838541666666 3.9629239583333336 7.962384375 4.589266666666667 0.7139104166666667 0.421259375 1.4109781250000002 0.43630520833333336 2.1301354166666666 0.021107291666666667 2.6668020833333337 -1.5398020833333332 5.33715 -3.073159375 8.005126041666667 -4.611308333333334 0.33060104166666665 -0.19130729166666668 0.5749041666666667 -0.4346520833333334 0.7358562500000001 -0.7253625 0.15635208333333334 -0.2828760416666667 0.23419270833333336 -0.6109854166666666 0.23419270833333336 -0.9814291666666667 0 0 0 -6.184963541666667 -0.0010302083333333333 -9.27834375Z" stroke-width="1"></path><path fill="#004482" d="M11.5307625 11.469812500000002 1.7154550000000002 17.121271875c0.160956875 0.29092604166666663 0.4052528125 0.5341270833333334 0.7358658333333333 0.72550625 1.5841729166666667 0.9175322916666667 6.900838541666666 3.9629239583333336 7.962384375 4.589266666666667 0.7139104166666667 0.421259375 1.4109781250000002 0.43630520833333336 2.130159375 0.021107291666666667 2.6668020833333337 -1.5398020833333332 5.337126041666667 -3.073159375 8.005102083333334 -4.611308333333334 0.330625 -0.19130729166666668 0.574928125 -0.4346520833333334 0.7358802083333333 -0.7253625L11.5307625 11.469812500000002Z" stroke-width="1"></path><path fill="#1A4674" d="M8.623370833333334 13.143829166666666c0.5711427083333334 0.9970979166666668 1.6448354166666668 1.6696322916666666 2.876509375 1.6696322916666666 1.2392927083333334 0 2.3190947916666667 -0.6810635416666666 2.8873625 -1.688846875l-2.8566958333333337 -1.6548020833333335 -2.9071760416666668 1.6740166666666667Z" stroke-width="1"></path><path fill="#01589C" d="M21.517889583333336 6.860780208333333c-0.00014375 -0.37866145833333337 -0.08114687500000001 -0.7132875 -0.24492604166666668 -1.0004760416666667L11.530642708333334 11.469884375l9.754084375 5.65066875c0.156328125 -0.2828760416666667 0.234025 -0.6109854166666666 0.23419270833333336 -0.9814291666666667 0 0 0 -6.184963541666667 -0.0010302083333333333 -9.27834375Z" stroke-width="1"></path><path fill="#ffffff" d="M20.981654166666665 11.873726041666666h-0.7622104166666667v0.7623541666666667h-0.762378125v-0.7623541666666667H18.694927083333337v-0.7621385416666666h0.7621385416666666v-0.7622104166666667h0.762378125v0.7622104166666667h0.7622104166666667v0.7621385416666666ZM11.500095833333333 4.845716666666667c2.4370177083333338 0 4.567823958333333 1.31028125 5.727167708333333 3.264610416666667l0.03481145833333334 0.059416666666666666 -2.896203125 1.6677395833333335c-0.5739697916666667 -0.9868916666666667 -1.6420083333333335 -1.651040625 -2.8657760416666664 -1.651040625 -1.8299614583333332 0 -3.3135333333333334 1.4835 -3.3135333333333334 3.3134614583333333 0 0.59843125 0.15953854166666667 1.1593916666666666 0.43700000000000006 1.6439010416666668 0.5711666666666667 0.9970979166666668 1.644859375 1.6696322916666666 2.876533333333333 1.6696322916666666 1.2256604166666667 0 2.2953520833333334 -0.6661854166666668 2.868435416666667 -1.6557364583333334l0.018903125 -0.03308645833333333 2.891890625 1.6755020833333334c-1.1465979166666667 2.0035156250000004 -3.3052916666666667 3.354046875 -5.779229166666667 3.354046875 -2.469385416666667 0 -4.624701041666667 -1.3451166666666667 -5.772952083333334 -3.3427625000000005 -0.5605770833333333 -0.9752239583333334 -0.8813072916666668 -2.1058416666666666 -0.8813072916666668 -3.311496875 0 -3.67496875 2.979146875 -6.654187500000001 6.6542593750000005 -6.654187500000001Zm5.938144791666667 5.503660416666667v0.7622104166666667h0.7621385416666666v0.7621385416666666h-0.7621385416666666v0.7623541666666667h-0.7622104166666667v-0.7623541666666667h-0.7622104166666667v-0.7621385416666666h0.7622104166666667v-0.7622104166666667h0.7622104166666667Z" stroke-width="1"></path></svg>